<svg width="132" height="161" viewBox="0 0 132 161" fill="none" xmlns="http://www.w3.org/2000/svg">
<path d="M24 105C30.5046 105 32.8742 88.9519 31.7778 84.4445C29.6788 75.8156 20.1147 76.5168 18.2222 85.2222C16.5615 92.8616 20.6938 102.532 24.4444 108.833C26.2038 111.789 32.3621 122.205 37.2222 119.333C43.9502 115.358 45.3479 104.781 46.4444 97.8889C47.9999 88.1117 46.0802 73.0577 39.4444 65.2778C35.4263 60.5669 26.9431 59.5014 22.4444 64C20.1241 66.3204 20.9222 70.3111 24.5555 67.8889C38.6861 58.4685 44.3584 33.8032 42.4444 17.9445C42.2685 16.4865 39.4849 -0.902198 35 1.22223C28.9557 4.08532 32.1919 24.8815 32.6111 29.1667C35.322 56.8777 39.2534 84.4541 41.7778 112.222C43.2283 128.178 44.9083 144.725 50 160" stroke="black" stroke-linecap="round"/>
<path d="M42 92C47.8286 90.7048 49.3617 76.1239 49.7778 71.7778C49.8557 70.9644 50.7457 60.585 47.5 61.8333C43.1505 63.5062 43.1887 76.5712 43.0556 80.1667C42.9649 82.6154 45.9291 113.007 54 105.833C62.4055 98.3618 61.3476 79.2255 60.2222 69.2222C59.7536 65.0565 58.7413 60.6464 59.5 67.7778C60.3689 75.9458 60.9517 84.1554 61.7778 92.3333C61.8529 93.077 63 101.97 63 99.1111C63 90.6432 62.7237 82.128 63.0556 73.6667C63.2321 69.164 63.2012 55.2487 66.5 66.6111C69.6481 77.4545 70.2596 89.0383 73 100" stroke="black" stroke-linecap="round"/>
<path d="M71 85C76.1649 93.7804 79.0934 70.6313 76.7778 66C76.5231 65.4907 75.0097 66.7174 74 67.2222C71.5339 68.4552 71.6609 72.6868 71 75" stroke="black" stroke-linecap="round"/>
<path d="M77 71C79.4734 66.0533 80 62.1549 80 56.6667C80 54.485 78.2727 50.2274 76.5 54.1667C73.2443 61.4015 74.1962 78.8598 82.0556 83.4444C83.4622 84.265 84.2528 85.0022 85.5 86C88.0241 88.0193 87.9905 79.0608 88.0556 77.8889C89.0158 60.6037 85.8994 44.89 80 28.6667C77.8766 22.8272 80.8852 41.0732 81.7778 47.2222C84.5247 66.1451 86.3577 85.3007 89.7778 104.111C89.8494 104.505 91.2027 113.966 92.4444 113.611C94.017 113.162 93.0059 100.296 93 99.2222C92.9463 89.5099 89.6172 76.8807 93 67.4444C95.4258 60.6777 106.538 55.8652 112.222 52.7778C117.162 50.0951 122.433 47.676 126.778 44.0555C126.989 43.8798 131.759 38.8019 130.889 38.8889C129.998 38.978 127.46 40.4724 127.111 40.6667C121.143 43.9883 115.195 47.2727 109.111 50.3889C91.5739 59.3714 73.8169 67.9134 56.1111 76.5555C36.333 86.2092 17.3907 95.2484 1 110" stroke="black" stroke-linecap="round"/>
<path d="M1 110C5.71302 109.476 12.5664 103.684 16.4444 101.333C38.1997 88.1484 60.1696 76.2217 83 65" stroke="black" stroke-linecap="round"/>
</svg>
